PathFileType	4	(X/Y/Z)	Patient4_TMGait_0pt7_02_left_14.trc.trc
DataRate	CameraRate	NumFrames	NumMarkers	Units	OrigDataRate	OrigDataStartFrame	OrigNumFrames
87.500000000000	87.500000000000	4	33	mm	87.500000000000	18	       141
Frame#	Time	Sacral			L.Shoulder			Chest			R.Shoulder			Neck			R.ASIS			L.ASIS			R.Thigh.Superior			R.Thigh.Lateral			R.Thigh.Inferior			R.Patella			L.Thigh.Superior			L.Thigh.Lateral			L.Thigh.Inferior			L.Patella			L.Shank.Superior			L.Shank.Lateral			L.Shank.Inferior			R.Shank.Superior			R.Shank.Lateral			R.Shank.Inferior			R.Heel			R.Midfoot.Superior			R.Midfoot.Lateral			R.Toe			L.Heel			L.Midfoot.Lateral			L.Midfoot.Superior			L.Toe			L.Elbow			L.Wrist			R.Elbow			R.Wrist			
		X1	Y1	Z1	X2	Y2	Z2	X3	Y3	Z3	X4	Y4	Z4	X5	Y5	Z5	X6	Y6	Z6	X7	Y7	Z7	X8	Y8	Z8	X9	Y9	Z9	X10	Y10	Z10	X11	Y11	Z11	X12	Y12	Z12	X13	Y13	Z13	X14	Y14	Z14	X15	Y15	Z15	X16	Y16	Z16	X17	Y17	Z17	X18	Y18	Z18	X19	Y19	Z19	X20	Y20	Z20	X21	Y21	Z21	X22	Y22	Z22	X23	Y23	Z23	X24	Y24	Z24	X25	Y25	Z25	X26	Y26	Z26	X27	Y27	Z27	X28	Y28	Z28	X29	Y29	Z29	X30	Y30	Z30	X31	Y31	Z31	X32	Y32	Z32	X33	Y33	Z33	

18	15.904285714286	765.111047922722	1011.426386785470	515.806335875496	932.632080715745	1426.011466108317	306.137265296281	1059.824325462095	1351.652344144419	447.600571885149	1013.259411592432	1434.172631906836	631.284021144902	959.423084728040	1486.620881793750	457.238768702195	994.824369632059	933.632261618425	608.756436251344	958.350078709290	952.798010884735	335.523275729394	987.749300855024	721.390540640220	584.793417099933	883.689556826958	629.524479629350	648.851836616085	942.007152813115	563.097080218018	567.916122007121	923.122179932090	479.169878316300	573.011675049228	1042.219285488697	789.698582250180	376.195252911392	1017.338505590178	658.617134903823	290.694501644313	1120.586084172968	607.568378740085	359.875950233716	1155.675089208997	542.215045612410	354.899572930107	1139.241289359894	465.820367071105	343.603312138100	1078.268103523480	337.126611638798	282.044391196764	1159.134753485890	236.161977228065	342.574151294195	884.933159298151	395.672844346991	579.979876342630	802.684800942743	300.948125773871	641.599784784753	832.644474082681	202.170583922776	577.023089273585	684.614738350662	43.725564142017	543.896437347636	854.666662776766	95.663026616470	584.473048285231	764.870640481543	37.092944002850	621.368900786838	973.534340532666	41.151377178035	618.318412875838	1075.070626392309	52.684513110348	367.328180058018	1156.752136239962	61.726287087757	295.331732050242	1221.880375811718	141.742463215327	324.518874043911	1358.937075929802	118.053950461062	311.741581915479	768.357058990239	1108.392329736824	232.420909215893	713.835933982869	854.767234627272	257.938822390001	1128.762186197734	1116.185857554159	757.119289931862	1362.623225108880	1116.658762557296	656.033986567842	
19	15.915714285714	766.662242182715	1009.656084194604	513.758443581913	933.226360734907	1424.950774564137	304.975038039467	1060.301022890398	1350.650517202633	446.490087283908	1013.217449909429	1432.864862539984	630.083191360286	959.460748612890	1485.225442599951	456.235462602668	995.889107105863	932.380559559775	607.591824778463	960.572341820976	950.958994528646	333.961638571579	986.863553221744	719.699782900740	584.347633902627	881.319206024099	628.791266908793	648.086202549961	939.107547379054	561.707138607306	567.466019653616	919.297412473809	477.714128476455	572.471081553418	1042.424855283323	785.106880646995	375.032615100671	1014.919981226866	653.931070145408	289.983589120436	1117.367047523663	601.762764798640	359.472901285315	1151.701578792619	537.660219249013	355.142957111388	1136.894232139868	462.100031156215	343.514491495738	1078.903136148399	331.430315603933	283.310846119625	1163.082770708854	233.059790164061	343.775329781601	880.135818132300	394.602510481824	579.527781029577	796.934570929819	300.801448985276	641.344784499579	825.788865445945	201.620240093303	576.890465028248	676.563234311948	43.780197982333	543.926641523326	846.621630170134	95.625289707775	584.494757353330	756.802463165138	37.090672626316	621.410842805824	965.472842528186	40.915884913965	618.403375398023	1084.113392236154	47.864859944300	369.957748594867	1165.425110188784	58.186341940281	297.666820327253	1228.894052125505	139.651330225751	326.302019557179	1366.528155250941	118.794121433131	313.285836970530	763.584378538198	1110.980960325443	232.112782086494	705.582007214202	858.098344678762	259.309470413856	1136.278336670981	1118.040268980765	753.287706011350	1367.518919194013	1133.117339713731	649.010111604261	
20	15.927142857143	768.417284520552	1007.647963685184	511.498746111254	933.855564441120	1423.717995186806	303.607169659370	1060.791595773245	1349.657331932309	445.289155291113	1012.941251488074	1431.534115702954	628.740677524790	959.359463087843	1483.700999168469	455.042164616317	997.217023970857	931.004476929418	606.331875321347	963.092071783277	948.985471238272	332.376846784522	986.465133865993	717.903155016873	583.752234107521	879.531773595824	627.900098379275	647.197682598069	936.831854244415	560.174667796445	566.869834395956	916.081287017459	476.015990541975	571.770521899418	1043.096934095394	780.429393252358	373.688954471687	1012.717604376152	649.190444862838	289.336686564329	1114.570064589157	596.022850300281	358.838077624140	1147.903466193803	532.735238322793	355.073629299139	1134.268260309859	457.937750058390	343.241311454341	1077.981283925431	325.807426354045	285.085444834242	1164.988126573962	229.572320046544	345.120795472929	875.852802126661	393.317716431123	578.946412868107	791.577328975317	300.580484419327	641.014462853066	819.122133996271	200.967900464014	576.713589044937	668.505352896988	43.860243263697	543.990509517426	838.589471056486	95.603438107401	584.521903796081	748.751649198788	37.080698291468	621.462324477732	957.436976487417	40.659806962454	618.511261566475	1089.613073498219	43.991633497723	373.454352939625	1170.131633240112	54.675632183948	300.406440835904	1233.014923038854	136.577479083932	328.157445413285	1370.682852733847	116.830756176000	314.108006538322	759.633359858459	1113.084723364023	231.672928535439	698.296711455577	860.948892489270	260.314618586133	1143.179391086200	1119.891778097688	749.309894507770	1371.076522323402	1148.898528215943	642.323837746245	
21	15.938571428571	770.326031157870	1005.456596790508	509.052339008910	934.538005557868	1422.321296304751	302.022630621172	1061.318841717160	1348.674177719681	443.981796855845	1012.477551688011	1430.201173304090	627.245746478587	959.159200540724	1482.072977340133	453.636180861945	998.782112591306	929.516008740074	604.977675673076	965.850158197766	946.931168196072	330.786486376258	986.558615424025	716.016343041028	582.991700929580	878.360816155895	626.839019374798	646.171694032390	935.232940727968	558.492124194777	566.121433620074	913.537438262029	474.052696131711	570.910767448809	1044.243989353619	775.818630168308	372.171754390734	1010.811436157235	644.536874628174	288.791686375176	1112.304095029073	590.543046669250	358.017204226031	1144.407342655846	527.625577363093	354.793422317384	1131.549082292056	453.487734154844	342.877167615420	1075.859013221709	320.356502939079	287.169885358632	1165.123192195513	225.748474002450	346.555115985553	872.127668086593	391.806806153574	578.221607412365	786.646692105759	300.291759539086	640.595962076672	812.665025851058	200.227937120128	576.487780014918	660.440304935645	44.009666997589	544.101574031124	830.587478937630	95.601647408223	584.559915374755	740.722449237022	37.082327399050	621.533979783081	949.436336407479	40.386683739405	618.643613913595	1091.763182783417	40.996826432650	377.440344395302	1171.227272313063	51.210797631505	303.307040520320	1234.570835471609	132.564289501235	330.050012637625	1371.827957579983	112.224576119706	314.375451767468	756.564510553760	1114.611374375190	231.052443888393	692.050172354685	863.237612687675	260.924392867338	1149.413929645834	1121.685069758552	745.257405200603	1373.359628383503	1163.896799442641	636.005637808353	
